HIERARCHY
ROOT Hips
{
	OFFSET -0.001795 -0.223333 0.028219
	CHANNELS 6 Xposition Yposition Zposition Zrotation Yrotation Xrotation 
	JOINT LeftUpLeg
	{
		OFFSET 0.069520 -0.091406 -0.006815
		CHANNELS 3 Zrotation Yrotation Xrotation
		JOINT LeftLeg
		{
			OFFSET 0.034277 -0.375199 -0.004496
			CHANNELS 3 Zrotation Yrotation Xrotation
			JOINT LeftFoot
			{
				OFFSET -0.013596 -0.397961 -0.043693
				CHANNELS 3 Zrotation Yrotation Xrotation
				JOINT LeftToe
				{
					OFFSET 0.026358 -0.055791 0.119288
					CHANNELS 3 Zrotation Yrotation Xrotation
					End Site
					{
						OFFSET 0.000000 0.000000 0.000000
					}
				}
			}
		}
	}
	JOINT RightUpLeg
	{
		OFFSET -0.067670 -0.090522 -0.004320
		CHANNELS 3 Zrotation Yrotation Xrotation
		JOINT RightLeg
		{
			OFFSET -0.038290 -0.382569 -0.008850
			CHANNELS 3 Zrotation Yrotation Xrotation
			JOINT RightFoot
			{
				OFFSET 0.015774 -0.398415 -0.042312
				CHANNELS 3 Zrotation Yrotation Xrotation
				JOINT RightToe
				{
					OFFSET -0.025372 -0.048144 0.123348
					CHANNELS 3 Zrotation Yrotation Xrotation
					End Site
					{
						OFFSET 0.000000 0.000000 0.000000
					}
				}
			}
		}
	}
	JOINT Spine
	{
		OFFSET -0.002533 0.108963 -0.026696
		CHANNELS 3 Zrotation Yrotation Xrotation
		JOINT Spine1
		{
			OFFSET 0.005487 0.135180 0.001092
			CHANNELS 3 Zrotation Yrotation Xrotation
			JOINT Spine2
			{
				OFFSET 0.001457 0.052922 0.025425
				CHANNELS 3 Zrotation Yrotation Xrotation
				JOINT Neck
				{
					OFFSET -0.002778 0.213870 -0.042857
					CHANNELS 3 Zrotation Yrotation Xrotation
					JOINT Head
					{
						OFFSET 0.005152 0.064970 0.051349
						CHANNELS 3 Zrotation Yrotation Xrotation
						End Site
						{
							OFFSET 0.000000 0.000000 0.000000
						}
					}
				}
				JOINT LeftShoulder
				{
					OFFSET 0.078845 0.121749 -0.034090
					CHANNELS 3 Zrotation Yrotation Xrotation
					JOINT LeftArm
					{
						OFFSET 0.090977 0.030469 -0.008868
						CHANNELS 3 Zrotation Yrotation Xrotation
						JOINT LeftForeArm
						{
							OFFSET 0.259612 -0.012772 -0.027456
							CHANNELS 3 Zrotation Yrotation Xrotation
							JOINT LeftHand
							{
								OFFSET 0.249234 0.008986 -0.001171
								CHANNELS 3 Zrotation Yrotation Xrotation
								End Site
								{
									OFFSET 0.000000 0.000000 0.000000
								}
							}
						}
					}
				}
				JOINT RightShoulder
				{
					OFFSET -0.081759 0.118833 -0.038615
					CHANNELS 3 Zrotation Yrotation Xrotation
					JOINT RightArm
					{
						OFFSET -0.096012 0.032551 -0.009143
						CHANNELS 3 Zrotation Yrotation Xrotation
						JOINT RightForeArm
						{
							OFFSET -0.253742 -0.013329 -0.021401
							CHANNELS 3 Zrotation Yrotation Xrotation
							JOINT RightHand
							{
								OFFSET -0.255298 0.007772 -0.005559
								CHANNELS 3 Zrotation Yrotation Xrotation
								End Site
								{
									OFFSET 0.000000 0.000000 0.000000
								}
							}
						}
					}
				}
			}
		}
	}
}
MOTION
Frames: 5
Frame Time: 0.050000
-0.269404 0.846216 0.259388 16.297277 54.710732 10.480458 -5.220117 -3.124398 -18.719635 -6.991757 -6.419794 37.824606 12.094611 5.178585 -21.199193 0.000000 0.000000 0.000000 -10.372969 -4.080336 -20.463374 -3.325710 -10.709755 48.188167 -0.170013 -0.515375 -28.294808 0.000000 0.000000 0.000000 11.281739 -3.166419 11.927474 -0.418262 -1.809749 6.782009 2.282163 22.391274 -0.372706 5.872837 2.415083 -17.802455 0.000000 0.000000 0.000000 -28.412156 -13.359987 -15.770805 -18.131980 18.852102 -0.846399 -9.297005 -50.217321 2.600523 0.000000 0.000000 0.000000 33.287653 13.735170 27.247128 10.962069 17.103542 -2.258653 -13.579053 44.268058 -5.049645 0.000000 0.000000 0.000000 
-0.270911 0.863151 0.257976 15.635695 53.610420 10.711126 -5.042902 -2.351312 -16.126298 -4.440625 -5.152753 31.759144 10.288411 1.524050 -18.578970 0.000000 0.000000 0.000000 -10.119224 -3.409169 -18.610701 -1.300634 -9.388122 42.342536 0.108681 -1.930240 -26.217419 0.000000 0.000000 0.000000 11.354640 -2.655357 9.876983 -0.387757 -1.748117 6.606926 2.039802 19.813264 0.455486 5.032167 3.137667 -19.691690 0.000000 0.000000 0.000000 -29.170297 -15.180044 -14.000882 -18.756575 15.680654 -0.539462 -3.102204 -58.419333 -0.220741 0.000000 0.000000 0.000000 33.004773 13.194504 25.680797 15.125292 15.201580 -2.439376 -14.834574 54.781471 -6.215878 0.000000 0.000000 0.000000 
-0.272490 0.883255 0.256889 14.335708 52.711961 10.006099 -4.761424 -1.608906 -13.161301 -2.261612 -3.858387 25.647679 7.483361 -2.869559 -15.432633 0.000000 0.000000 0.000000 -8.957778 -2.334831 -15.508113 1.333736 -7.698628 34.247072 0.086450 -4.764286 -23.062010 0.000000 0.000000 0.000000 11.050130 -2.345240 8.910731 -0.027433 -1.683405 5.851912 1.285472 18.435394 0.463915 5.802763 2.503890 -19.023526 0.000000 0.000000 0.000000 -29.321095 -18.721704 -11.447550 -19.681677 12.994202 -0.205733 3.122022 -68.963756 -4.732374 0.000000 0.000000 0.000000 33.714196 12.171071 24.860434 18.766763 11.981050 -2.913817 -14.559375 64.260947 -6.693197 0.000000 0.000000 0.000000 
-0.274277 0.901604 0.256077 13.293231 51.736675 10.132293 -4.233874 -1.313766 -11.961932 -1.485045 -3.072006 22.227669 5.022816 -3.277573 -11.077415 0.000000 0.000000 0.000000 -8.518594 -1.772728 -13.168706 3.100251 -5.784965 26.609127 -0.244880 -6.556729 -19.005006 0.000000 0.000000 0.000000 10.696779 -1.933008 7.297957 0.221653 -1.467227 4.666369 1.264673 15.935621 1.889598 5.182635 3.100765 -21.053498 0.000000 0.000000 0.000000 -29.541509 -20.290270 -9.255281 -20.280418 7.897052 0.254641 12.367375 -76.455666 -12.497354 0.000000 0.000000 0.000000 33.194510 11.245096 23.078113 22.942281 9.910212 -3.476617 -7.970836 72.568851 -1.505721 0.000000 0.000000 0.000000 
-0.276249 0.916023 0.255855 11.779786 50.827042 9.430703 -3.461804 -0.946409 -10.158222 -0.956324 -2.341798 18.825464 3.538901 -3.626983 -8.648006 0.000000 0.000000 0.000000 -7.235844 -1.093920 -10.346769 3.514608 -3.757599 19.204467 -0.659837 -7.522502 -14.707782 0.000000 0.000000 0.000000 10.024403 -1.535179 5.915813 0.048461 -1.369281 4.683672 0.950569 14.177698 1.646648 5.384233 2.673642 -20.380277 0.000000 0.000000 0.000000 -28.497902 -22.515222 -6.404912 -20.957525 4.411691 0.583769 32.931014 -80.444214 -31.543289 0.000000 0.000000 0.000000 33.412968 10.411386 21.812696 25.345187 7.937257 -3.960030 10.074542 79.505384 14.329099 0.000000 0.000000 0.000000 
